<svg xmlns="http://www.w3.org/2000/svg" viewBox="0 0 511.999 511.999"><path fill="#d6b56d" d="M240.16 182.398h31.681v112.89H240.16z"/><path opacity=".1" d="M240.161 234.836l15.84-8.329 15.84 8.329v-52.434h-31.68z"/><g fill="#ffd782"><path d="M256.001 7.959l36.948 74.864 82.617 12.004-59.783 58.273 14.113 82.284-73.895-38.849-73.895 38.849 14.113-82.284-59.783-58.273 82.618-12.004zM263.777 266.21h-15.552c-33.477 0-60.617 27.139-60.617 60.617v32.551h136.786v-32.551c0-33.478-27.139-60.617-60.617-60.617z"/></g><path d="M219.444 326.827c0-30.715 22.85-56.078 52.475-60.057-2.665-.358-5.379-.559-8.141-.559h-15.552c-33.477 0-60.617 27.139-60.617 60.617v32.551h31.836v-32.552h-.001z" opacity=".1"/><path fill="#464754" d="M146.997 326.826h218.011V480.2H146.997z"/><path fill="#ffd782" d="M178.218 359.373h155.56v64.431h-155.56z"/><path opacity=".1" d="M146.997 326.826h31.836V480.2h-31.836z"/><path d="M367.761 456.361H144.242c-26.334 0-47.68 21.347-47.68 47.68h318.881c-.001-26.333-21.349-47.68-47.682-47.68z" fill="#363640"/><path d="M176.077 456.36h-31.836c-26.334 0-47.682 21.348-47.682 47.682h31.836c.001-26.334 21.349-47.682 47.682-47.682z" opacity=".1"/><path d="M333.783 351.419H237.62c-4.397 0-7.959 3.563-7.959 7.959 0 4.395 3.562 7.959 7.959 7.959h88.204v48.513H186.179v-48.513h19.607c4.395 0 7.959-3.563 7.959-7.959 0-4.395-3.563-7.959-7.959-7.959H178.22c-4.395 0-7.959 3.563-7.959 7.959v64.431c0 4.395 3.563 7.959 7.959 7.959h155.564c4.395 0 7.959-3.564 7.959-7.959v-64.431c-.001-4.395-3.564-7.959-7.96-7.959zM226.28 119.019h59.444c4.395 0 7.959-3.563 7.959-7.959 0-4.395-3.563-7.959-7.959-7.959H226.28c-4.395 0-7.959 3.563-7.959 7.959 0 4.396 3.564 7.959 7.959 7.959zM226.28 147.157h59.444c4.395 0 7.959-3.563 7.959-7.959 0-4.395-3.563-7.959-7.959-7.959H226.28c-4.395 0-7.959 3.563-7.959 7.959 0 4.395 3.564 7.959 7.959 7.959zM226.28 175.294h59.444c4.395 0 7.959-3.563 7.959-7.959 0-4.395-3.563-7.959-7.959-7.959H226.28c-4.395 0-7.959 3.563-7.959 7.959 0 4.396 3.564 7.959 7.959 7.959z"/><path d="M372.965 448.652V326.827c0-4.395-3.562-7.959-7.959-7.959h-33.129c-3.336-28.721-24.48-52.074-52.076-58.707V218.04l46.392 24.389c1.165.612 2.435.914 3.703.914 1.65 0 3.293-.513 4.679-1.52 2.451-1.781 3.678-4.799 3.166-7.785l-13.405-78.159 56.785-55.353c2.169-2.115 2.95-5.277 2.014-8.158-.936-2.881-3.427-4.981-6.426-5.416l-78.476-11.404-35.094-71.111C261.797 1.72 259.031 0 256.002 0c-3.03 0-5.796 1.72-7.138 4.437l-35.096 71.112-16.203 2.355c-4.35.631-7.364 4.67-6.732 9.02.631 4.35 4.669 7.368 9.02 6.731l20.344-2.956c2.592-.377 4.834-2.005 5.993-4.354l29.811-60.402 29.81 60.402c1.159 2.348 3.4 3.977 5.993 4.354l66.658 9.686-48.234 47.017c-1.876 1.828-2.732 4.463-2.289 7.044l11.387 66.389s-43.778-23.016-43.781-23.017l-11.146-5.86c-3.908-2.054-7.637-4.701-12.103-2.468l-59.621 31.346 11.386-66.389c.443-2.582-.413-5.216-2.289-7.044l-48.234-47.017 14.603-2.122c4.35-.631 7.364-4.67 6.732-9.02-.632-4.35-4.67-7.364-9.02-6.731l-30.561 4.441c-2.998.435-5.488 2.535-6.426 5.416-.936 2.881-.155 6.045 2.014 8.158l56.785 55.353-13.406 78.159c-.511 2.986.715 6.004 3.167 7.785 2.451 1.78 5.701 2.014 8.381.606l46.392-24.39v42.122c-27.595 6.634-48.74 29.986-52.076 58.707h-33.13c-4.395 0-7.959 3.564-7.959 7.959v121.825c-28.248 2.634-50.435 26.464-50.435 55.389 0 4.395 3.563 7.959 7.959 7.959h233.777c4.395 0 7.959-3.564 7.959-7.959s-3.563-7.959-7.959-7.959H105.32c3.695-18.103 19.742-31.764 38.921-31.764H367.761c19.178 0 35.225 13.661 38.92 31.764h-44.509c-4.397 0-7.959 3.564-7.959 7.959s3.562 7.959 7.959 7.959h53.269c4.397 0 7.959-3.564 7.959-7.959.001-28.927-22.187-52.757-50.435-55.391zM248.121 258.251v-48.58l7.881-4.144 7.881 4.144v48.58h-15.762zm-7.169 16.419c.086-.008.172-.008.257-.02 2.324-.309 4.672-.481 7.017-.481h15.551c2.343 0 4.695.169 7.017.481.064.009.127.005.192.013 23.03 3.167 41.36 21.279 44.849 44.206H196.168c3.486-22.907 21.784-41.008 44.784-44.199zm-85.997 173.731V334.786h202.093V448.4H154.955z"/></svg>